<svg xmlns="http://www.w3.org/2000/svg" width="938" height="966" viewBox="0 0 938 966" preserveAspectRatio="xMidYMid meet" role="img" aria-label="Carroll LaPlata Village two-bedroom townhouse, upper level floor plan with two bedrooms, bathroom, hallway, closets and stairs">
<defs><style>
    .fp{fill:#FFFFFF}
    .w{fill:none;stroke:#2C3E2D;stroke-width:7;stroke-linecap:butt}
    .wo{fill:none;stroke:#2C3E2D;stroke-width:10;stroke-linecap:butt}
    .d{fill:none;stroke:#7C9880;stroke-width:2.5;stroke-dasharray:5 6}
    .arc{fill:none;stroke:#5E7D63;stroke-width:3}
    .win{fill:none;stroke:#2C3E2D;stroke-width:2.5}
    .st{fill:none;stroke:#2C3E2D;stroke-width:2.5}
    .rm{fill:#22331F;font-family:'Helvetica Neue',Arial,sans-serif;font-size:25px;font-style:italic;text-anchor:middle}
    .cl{fill:#4A5C4D;font-family:'Helvetica Neue',Arial,sans-serif;font-size:18px;font-style:italic;text-anchor:middle}
    .sm{fill:#4A5C4D;font-family:'Helvetica Neue',Arial,sans-serif;font-size:14px;font-style:italic;text-anchor:middle}
  </style></defs>
<rect class="fp" x="17" y="17" width="899" height="927"/>
<path class="w" d="M367,10 V26 M367,155 V325 M367,329 V351 M367,464 V488 M522,10 V161 M522,177 V336 M722,503 V903 M722,910 V926 M364,173 H386 M389,173 H525 M503,328 H757 M900,328 H913 M24,485 H549 M661,485 H714"/>
<path class="arc" d="M879,328 V213 M764,328 A115,115 0 0 1 879,213"/>
<path class="arc" d="M367,452 H273 M367,358 A94,94 0 0 0 273,452"/>
<path class="arc" d="M664,485 V588 M561,485 A103,103 0 0 0 664,588"/>
<path class="d" d="M363,57 V142 M371,57 V142 M374,318 H484 M374,326 H484"/>
<path class="w" d="M522,18 V321 M882,330 H916"/>
<path class="st" d="M722,500 V928 M910,500 V928 M722,515 H910 M722,547 H910 M722,578 H910 M722,610 H910 M722,645 H910 M722,676 H910 M722,711 H910 M722,743 H910 M722,778 H910 M722,809 H910 M722,844 H910 M722,876 H910 M722,911 H910"/>
<path class="wo" d="M17,17 H916 V944 H17 V17"/>
<text class="rm" x="190" y="270">Bedroom</text>
<text class="rm" x="205" y="720">Bedroom</text>
<text class="rm" x="700" y="150">Bathroom</text>
<text class="cl" x="610" y="455">Hallway</text>
<text class="sm" x="445" y="110">Closet</text>
<text class="sm" x="445" y="290">Closet</text>
</svg>