<svg xmlns="http://www.w3.org/2000/svg" width="833" height="1285" viewBox="0 0 833 1285" preserveAspectRatio="xMidYMid meet" role="img" aria-label="Carroll LaPlata Village two-bedroom townhouse, main level floor plan with kitchen/dining, living room, closet and stairs">
<defs><style>
    .fp{fill:#FFFFFF}
    .w{fill:none;stroke:#2C3E2D;stroke-width:7;stroke-linecap:butt}
    .wo{fill:none;stroke:#2C3E2D;stroke-width:10;stroke-linecap:butt}
    .d{fill:none;stroke:#7C9880;stroke-width:2.5;stroke-dasharray:5 6}
    .arc{fill:none;stroke:#5E7D63;stroke-width:3}
    .win{fill:none;stroke:#2C3E2D;stroke-width:2.5}
    .st{fill:none;stroke:#2C3E2D;stroke-width:2.5}
    .rm{fill:#22331F;font-family:'Helvetica Neue',Arial,sans-serif;font-size:25px;font-style:italic;text-anchor:middle}
    .cl{fill:#4A5C4D;font-family:'Helvetica Neue',Arial,sans-serif;font-size:18px;font-style:italic;text-anchor:middle}
    .sm{fill:#4A5C4D;font-family:'Helvetica Neue',Arial,sans-serif;font-size:14px;font-style:italic;text-anchor:middle}
  </style></defs>
<rect class="fp" x="31" y="29" width="777" height="1235"/>
<path class="w" d="M24,647 H535 M642,647 H789 M672,798 H791 M794,798 H812"/>
<path class="d" d="M551,643 H635 M551,651 H635 M651,677 V761 M659,677 V761"/>
<path class="arc" d="M111,29 V157 M111,157 A128,128 0 0 0 239,29"/>
<path class="win" d="M532,24 H678 M532,29 H678 M532,34 H678 M532,22 V36 M678,22 V36"/>
<path class="win" d="M174,1259 H349 M174,1264 H349 M174,1269 H349 M174,1257 V1271 M349,1257 V1271"/>
<path class="arc" d="M620,1264 V1138 M494,1264 A126,126 0 0 1 620,1138"/>
<path class="w" d="M640,806 H801"/>
<path class="st" d="M641,655 V670 M641,768 V793 M801,655 V793 M641,680 H801 M641,712 H801 M641,743 H801 M641,778 H801"/>
<path class="st" d="M641,815 V1258 M801,815 V1258 M641,841 H801 M641,876 H801 M641,908 H801 M641,939 H801 M641,974 H801 M641,1006 H801 M641,1037 H801 M641,1072 H801 M641,1104 H801 M641,1135 H801 M641,1170 H801 M641,1202 H801 M641,1233 H801"/>
<path class="wo" d="M31,29 H111 M239,29 H532 M678,29 H808 V1264 H620 M494,1264 H349 M174,1264 H31 V29"/>
<text class="rm" x="388" y="417">Kitchen/Dining</text>
<text class="rm" x="343" y="970">Living Room</text>
<text class="sm" x="733" y="736">Closet</text>
</svg>